<svg width="121" height="121" viewBox="0 0 121 121" fill="none" xmlns="http://www.w3.org/2000/svg">
<g clip-path="url(#clip0_75_388)">
<path d="M15.125 15.125H30.25V30.25H15.125V15.125Z" fill="black"/>
<path d="M45.375 0V45.375H0V0H45.375ZM37.8125 7.5625H7.5625V37.8125H37.8125V7.5625ZM30.25 90.75H15.125V105.875H30.25V90.75Z" fill="black"/>
<path d="M45.375 75.625V121H0V75.625H45.375ZM7.5625 83.1875V113.438H37.8125V83.1875H7.5625ZM90.75 15.125H105.875V30.25H90.75V15.125Z" fill="black"/>
<path d="M75.625 0V45.375H121V0H75.625ZM113.438 7.5625V37.8125H83.1875V7.5625H113.438ZM60.5 7.5625V0H68.0625V15.125H60.5V30.25H52.9375V7.5625H60.5ZM60.5 45.375V30.25H68.0625V45.375H60.5ZM45.375 60.5V52.9375H52.9375V45.375H60.5V60.5H68.0625V52.9375H105.875V60.5H75.625V68.0625H52.9375V60.5H45.375ZM45.375 60.5V68.0625H15.125V60.5H7.5625V68.0625H0V52.9375H22.6875V60.5H45.375ZM121 68.0625H113.438V52.9375H121V68.0625ZM113.438 68.0625H105.875V83.1875H121V75.625H113.438V68.0625ZM83.1875 68.0625H98.3125V75.625H90.75V83.1875H83.1875V68.0625ZM98.3125 90.75V83.1875H90.75V90.75H83.1875V98.3125H68.0625V105.875H90.75V90.75H98.3125ZM98.3125 90.75H121V98.3125H105.875V105.875H98.3125V90.75ZM68.0625 83.1875V90.75H75.625V75.625H52.9375V83.1875H68.0625Z" fill="black"/>
<path d="M52.9375 90.75H60.5V113.438H90.75V121H52.9375V90.75ZM121 105.875V121H98.3125V113.438H113.438V105.875H121Z" fill="black"/>
</g>
<defs>
<clipPath id="clip0_75_388">
<rect width="121" height="121" fill="white"/>
</clipPath>
</defs>
</svg>
